<svg xmlns="http://www.w3.org/2000/svg" xmlns:xlink="http://www.w3.org/1999/xlink" width="1129pt" height="834pt" viewBox="0.00 0.00 1129.00 834.00">
<g id="graph0" class="graph" transform="scale(1 1) rotate(0) translate(4 830)">
<title>VisualLearningArchitectureDetailed</title>
<polygon fill="white" stroke="none" points="-4,4 -4,-830 1124.67,-830 1124.67,4 -4,4"/>
<g id="clust1" class="cluster">
<title>cluster_3_1</title>
<path fill="#e3f2fd" stroke="black" d="M122.23,-535C122.23,-535 593.99,-535 593.99,-535 599.99,-535 605.99,-541 605.99,-547 605.99,-547 605.99,-776 605.99,-776 605.99,-782 599.99,-788 593.99,-788 593.99,-788 122.23,-788 122.23,-788 116.23,-788 110.23,-782 110.23,-776 110.23,-776 110.23,-547 110.23,-547 110.23,-541 116.23,-535 122.23,-535"/>
<text xml:space="preserve" text-anchor="middle" x="358.11" y="-771.4" font-family="Helvetica,sans-Serif" font-weight="bold" font-size="14.00" fill="#0d47a1">3.1 Core Processing Pipeline</text>
</g>
<g id="clust2" class="cluster">
<title>cluster_3_3</title>
<path fill="none" stroke="black" stroke-dasharray="5,2" d="M760.03,-665C760.03,-665 1100.67,-665 1100.67,-665 1106.67,-665 1112.67,-671 1112.67,-677 1112.67,-677 1112.67,-806 1112.67,-806 1112.67,-812 1106.67,-818 1100.67,-818 1100.67,-818 760.03,-818 760.03,-818 754.03,-818 748.03,-812 748.03,-806 748.03,-806 748.03,-677 748.03,-677 748.03,-671 754.03,-665 760.03,-665"/>
<text xml:space="preserve" text-anchor="middle" x="930.35" y="-801.4" font-family="Helvetica,sans-Serif" font-weight="bold" font-size="14.00" fill="#1b5e20">3.3 Structured Output Requirement</text>
</g>
<g id="clust3" class="cluster">
<title>cluster_3_2_engines</title>
<path fill="#fff3e0" stroke="black" d="M386.28,-8C386.28,-8 593.07,-8 593.07,-8 599.07,-8 605.07,-14 605.07,-20 605.07,-20 605.07,-515 605.07,-515 605.07,-521 599.07,-527 593.07,-527 593.07,-527 386.28,-527 386.28,-527 380.28,-527 374.28,-521 374.28,-515 374.28,-515 374.28,-20 374.28,-20 374.28,-14 380.28,-8 386.28,-8"/>
<text xml:space="preserve" text-anchor="middle" x="489.67" y="-510.4" font-family="Helvetica,sans-Serif" font-weight="bold" font-size="14.00" fill="#e65100">3.2 Rendering Engines</text>
</g>
<g id="clust4" class="cluster">
<title>cluster_3_2_outputs</title>
<path fill="#f3e5f5" stroke="black" d="M810.75,-8C810.75,-8 1049.95,-8 1049.95,-8 1055.95,-8 1061.95,-14 1061.95,-20 1061.95,-20 1061.95,-515 1061.95,-515 1061.95,-521 1055.95,-527 1049.95,-527 1049.95,-527 810.75,-527 810.75,-527 804.75,-527 798.75,-521 798.75,-515 798.75,-515 798.75,-20 798.75,-20 798.75,-14 804.75,-8 810.75,-8"/>
<text xml:space="preserve" text-anchor="middle" x="930.35" y="-510.4" font-family="Helvetica,sans-Serif" font-weight="bold" font-size="14.00" fill="#4a148c">Deterministic Visual Outputs</text>
</g>
<!-- User -->
<g id="node1" class="node">
<title>User</title>
<ellipse fill="#eceff1" stroke="black" cx="28.61" cy="-705" rx="28.61" ry="28.61"/>
<text xml:space="preserve" text-anchor="middle" x="28.61" y="-708.3" font-family="Helvetica,sans-Serif" font-size="11.00" fill="#333333">User</text>
<text xml:space="preserve" text-anchor="middle" x="28.61" y="-695.1" font-family="Helvetica,sans-Serif" font-size="11.00" fill="#333333">Input</text>
</g>
<!-- PromptIngestion -->
<g id="node2" class="node">
<title>PromptIngestion</title>
<polygon fill="#bbdefb" stroke="none" points="140.33,-711.6 140.33,-738.8 310.25,-738.8 310.25,-711.6 140.33,-711.6"/>
<polygon fill="none" stroke="#90caf9" points="140.33,-711.6 140.33,-738.8 310.25,-738.8 310.25,-711.6 140.33,-711.6"/>
<text xml:space="preserve" text-anchor="start" x="180.07" y="-722.9" font-family="Helvetica,sans-Serif" font-weight="bold" font-size="11.00">Prompt Ingestion</text>
<polygon fill="#ffffff" stroke="none" points="140.33,-671.2 140.33,-711.6 310.25,-711.6 310.25,-671.2 140.33,-671.2"/>
<polygon fill="none" stroke="#90caf9" points="140.33,-671.2 140.33,-711.6 310.25,-711.6 310.25,-671.2 140.33,-671.2"/>
<text xml:space="preserve" text-anchor="start" x="155.88" y="-694.7" font-family="Helvetica,sans-Serif" font-size="11.00">Ingests the natural language</text>
<text xml:space="preserve" text-anchor="start" x="147.33" y="-681.5" font-family="Helvetica,sans-Serif" font-size="11.00">request for a concept/simulation</text>
</g>
<!-- User&#45;&gt;PromptIngestion -->
<g id="edge1" class="edge">
<title>User-&gt;PromptIngestion</title>
<path fill="none" stroke="#546e7a" stroke-width="1.5" d="M57.63,-705C57.63,-705 120.27,-705 120.27,-705"/>
<polygon fill="#546e7a" stroke="#546e7a" stroke-width="1.5" points="120.27,-708.5 130.27,-705 120.27,-701.5 120.27,-708.5"/>
</g>
<!-- SystemPrompting -->
<g id="node3" class="node">
<title>SystemPrompting</title>
<polygon fill="#bbdefb" stroke="none" points="401.36,-655.6 401.36,-682.8 577.99,-682.8 577.99,-655.6 401.36,-655.6"/>
<polygon fill="none" stroke="#90caf9" points="401.36,-655.6 401.36,-682.8 577.99,-682.8 577.99,-655.6 401.36,-655.6"/>
<text xml:space="preserve" text-anchor="start" x="411.13" y="-666.9" font-family="Helvetica,sans-Serif" font-weight="bold" font-size="11.00">Contextual System Prompting</text>
<polygon fill="#ffffff" stroke="none" points="401.36,-615.2 401.36,-655.6 577.99,-655.6 577.99,-615.2 401.36,-615.2"/>
<polygon fill="none" stroke="#90caf9" points="401.36,-615.2 401.36,-655.6 577.99,-655.6 577.99,-615.2 401.36,-615.2"/>
<text xml:space="preserve" text-anchor="start" x="408.36" y="-638.7" font-family="Helvetica,sans-Serif" font-size="11.00">Enforces syntax rules, coordinate</text>
<text xml:space="preserve" text-anchor="start" x="420.89" y="-625.5" font-family="Helvetica,sans-Serif" font-size="11.00">grids, and library constraints</text>
</g>
<!-- PromptIngestion&#45;&gt;SystemPrompting -->
<g id="edge2" class="edge">
<title>PromptIngestion-&gt;SystemPrompting</title>
<path fill="none" stroke="#546e7a" stroke-width="1.5" d="M318.13,-677C318.13,-677 381.2,-677 381.2,-677"/>
<polygon fill="#546e7a" stroke="#546e7a" stroke-width="1.5" points="381.2,-680.5 391.2,-677 381.2,-673.5 381.2,-680.5"/>
</g>
<!-- LLM -->
<g id="node5" class="node">
<title>LLM</title>
<polygon fill="#c8e6c9" stroke="none" points="776.03,-742.2 776.03,-769.4 1084.67,-769.4 1084.67,-742.2 776.03,-742.2"/>
<polygon fill="none" stroke="#a5d6a7" points="776.03,-742.2 776.03,-769.4 1084.67,-769.4 1084.67,-742.2 776.03,-742.2"/>
<text xml:space="preserve" text-anchor="start" x="876.87" y="-753.5" font-family="Helvetica,sans-Serif" font-weight="bold" font-size="11.00">AI Model Generation</text>
<polygon fill="#ffffff" stroke="none" points="776.03,-688.6 776.03,-742.2 1084.67,-742.2 1084.67,-688.6 776.03,-688.6"/>
<polygon fill="none" stroke="#a5d6a7" points="776.03,-688.6 776.03,-742.2 1084.67,-742.2 1084.67,-688.6 776.03,-688.6"/>
<text xml:space="preserve" text-anchor="start" x="787.31" y="-725.3" font-family="Helvetica,sans-Serif" font-size="11.00">                    • Predictable JSON formats with distinct keys</text>
<text xml:space="preserve" text-anchor="start" x="812.05" y="-712.1" font-family="Helvetica,sans-Serif" font-size="11.00">                    • Elimination of conversational filler</text>
<text xml:space="preserve" text-anchor="start" x="783.03" y="-698.9" font-family="Helvetica,sans-Serif" font-size="11.00">                    • Flawless algorithmic deserialization                </text>
</g>
<!-- SystemPrompting&#45;&gt;LLM -->
<g id="edge3" class="edge">
<title>SystemPrompting-&gt;LLM</title>
<path fill="none" stroke="#546e7a" stroke-width="1.5" d="M585.83,-647.9C677.5,-647.9 801.67,-647.9 801.67,-647.9 801.67,-647.9 801.67,-672.38 801.67,-672.38"/>
<polygon fill="#546e7a" stroke="#546e7a" stroke-width="1.5" points="798.17,-672.38 801.67,-682.38 805.17,-672.38 798.17,-672.38"/>
<text xml:space="preserve" text-anchor="middle" x="677.01" y="-689" font-family="Helvetica,sans-Serif" font-size="10.00"> Tailored System Prompt</text>
</g>
<!-- CodeExtraction -->
<g id="node4" class="node">
<title>CodeExtraction</title>
<polygon fill="#bbdefb" stroke="none" points="138.23,-599.6 138.23,-626.8 312.36,-626.8 312.36,-599.6 138.23,-599.6"/>
<polygon fill="none" stroke="#90caf9" points="138.23,-599.6 138.23,-626.8 312.36,-626.8 312.36,-599.6 138.23,-599.6"/>
<text xml:space="preserve" text-anchor="start" x="145.23" y="-610.9" font-family="Helvetica,sans-Serif" font-weight="bold" font-size="11.00">Code Extraction &amp; Sanitization</text>
<polygon fill="#ffffff" stroke="none" points="138.23,-559.2 138.23,-599.6 312.36,-599.6 312.36,-559.2 138.23,-559.2"/>
<polygon fill="none" stroke="#90caf9" points="138.23,-559.2 138.23,-599.6 312.36,-599.6 312.36,-559.2 138.23,-559.2"/>
<text xml:space="preserve" text-anchor="start" x="158.68" y="-582.7" font-family="Helvetica,sans-Serif" font-size="11.00">Server-side extraction and</text>
<text xml:space="preserve" text-anchor="start" x="145.23" y="-569.5" font-family="Helvetica,sans-Serif" font-size="11.00">sanitization of target code string</text>
</g>
<!-- EngineLaTeX -->
<g id="node6" class="node">
<title>EngineLaTeX</title>
<polygon fill="#ffe0b2" stroke="none" points="402.28,-255 402.28,-282.2 577.07,-282.2 577.07,-255 402.28,-255"/>
<polygon fill="none" stroke="#ffcc80" points="402.28,-255 402.28,-282.2 577.07,-282.2 577.07,-255 402.28,-255"/>
<text xml:space="preserve" text-anchor="start" x="426.1" y="-266.3" font-family="Helvetica,sans-Serif" font-weight="bold" font-size="11.00">Backend LaTeX Pipeline</text>
<polygon fill="#ffffff" stroke="none" points="402.28,-227.8 402.28,-255 577.07,-255 577.07,-227.8 402.28,-227.8"/>
<polygon fill="none" stroke="#ffcc80" points="402.28,-227.8 402.28,-255 577.07,-255 577.07,-227.8 402.28,-227.8"/>
<text xml:space="preserve" text-anchor="start" x="409.28" y="-238.1" font-family="Helvetica,sans-Serif" font-size="11.00">Circuitikz &amp; Chemfig code reader</text>
</g>
<!-- CodeExtraction&#45;&gt;EngineLaTeX -->
<g id="edge5" class="edge">
<title>CodeExtraction-&gt;EngineLaTeX</title>
<path fill="none" stroke="#546e7a" stroke-width="1.5" d="M320.35,-569.2C360.74,-569.2 398.67,-569.2 398.67,-569.2 398.67,-569.2 398.67,-298.26 398.67,-298.26"/>
<polygon fill="#546e7a" stroke="#546e7a" stroke-width="1.5" points="402.17,-298.26 398.67,-288.26 395.17,-298.26 402.17,-298.26"/>
</g>
<!-- EngineCanvas -->
<g id="node7" class="node">
<title>EngineCanvas</title>
<polygon fill="#ffe0b2" stroke="none" points="409.31,-157 409.31,-184.2 570.04,-184.2 570.04,-157 409.31,-157"/>
<polygon fill="none" stroke="#ffcc80" points="409.31,-157 409.31,-184.2 570.04,-184.2 570.04,-157 409.31,-157"/>
<text xml:space="preserve" text-anchor="start" x="431.31" y="-168.3" font-family="Helvetica,sans-Serif" font-weight="bold" font-size="11.00">Custom HTML Canvas</text>
<polygon fill="#ffffff" stroke="none" points="409.31,-129.8 409.31,-157 570.04,-157 570.04,-129.8 409.31,-129.8"/>
<polygon fill="none" stroke="#ffcc80" points="409.31,-129.8 409.31,-157 570.04,-157 570.04,-129.8 409.31,-129.8"/>
<text xml:space="preserve" text-anchor="start" x="416.31" y="-140.1" font-family="Helvetica,sans-Serif" font-size="11.00">Structured State JSON reader</text>
</g>
<!-- CodeExtraction&#45;&gt;EngineCanvas -->
<g id="edge6" class="edge">
<title>CodeExtraction-&gt;EngineCanvas</title>
<path fill="none" stroke="#546e7a" stroke-width="1.5" d="M225.67,-555.45C225.67,-449.69 225.67,-157 225.67,-157 225.67,-157 389.13,-157 389.13,-157"/>
<polygon fill="#546e7a" stroke="#546e7a" stroke-width="1.5" points="389.13,-160.5 399.13,-157 389.13,-153.5 389.13,-160.5"/>
</g>
<!-- EngineJS -->
<g id="node8" class="node">
<title>EngineJS</title>
<polygon fill="#ffe0b2" stroke="none" points="411.75,-59 411.75,-86.2 567.59,-86.2 567.59,-59 411.75,-59"/>
<polygon fill="none" stroke="#ffcc80" points="411.75,-59 411.75,-86.2 567.59,-86.2 567.59,-59 411.75,-59"/>
<text xml:space="preserve" text-anchor="start" x="439.55" y="-70.3" font-family="Helvetica,sans-Serif" font-weight="bold" font-size="11.00">Browser JS Engine</text>
<polygon fill="#ffffff" stroke="none" points="411.75,-31.8 411.75,-59 567.59,-59 567.59,-31.8 411.75,-31.8"/>
<polygon fill="none" stroke="#ffcc80" points="411.75,-31.8 411.75,-59 567.59,-59 567.59,-31.8 411.75,-31.8"/>
<text xml:space="preserve" text-anchor="start" x="418.75" y="-42.1" font-family="Helvetica,sans-Serif" font-size="11.00">JavaScript Classes evaluator</text>
</g>
<!-- CodeExtraction&#45;&gt;EngineJS -->
<g id="edge7" class="edge">
<title>CodeExtraction-&gt;EngineJS</title>
<path fill="none" stroke="#546e7a" stroke-width="1.5" d="M177.67,-555.45C177.67,-433.9 177.67,-59 177.67,-59 177.67,-59 391.74,-59 391.74,-59"/>
<polygon fill="#546e7a" stroke="#546e7a" stroke-width="1.5" points="391.74,-62.5 401.74,-59 391.74,-55.5 391.74,-62.5"/>
</g>
<!-- EngineMermaid -->
<g id="node9" class="node">
<title>EngineMermaid</title>
<polygon fill="#ffe0b2" stroke="none" points="410.84,-451 410.84,-478.2 568.5,-478.2 568.5,-451 410.84,-451"/>
<polygon fill="none" stroke="#ffcc80" points="410.84,-451 410.84,-478.2 568.5,-478.2 568.5,-451 410.84,-451"/>
<text xml:space="preserve" text-anchor="start" x="417.84" y="-462.3" font-family="Helvetica,sans-Serif" font-weight="bold" font-size="11.00">Browser Mermaid Renderer</text>
<polygon fill="#ffffff" stroke="none" points="410.84,-423.8 410.84,-451 568.5,-451 568.5,-423.8 410.84,-423.8"/>
<polygon fill="none" stroke="#ffcc80" points="410.84,-423.8 410.84,-451 568.5,-451 568.5,-423.8 410.84,-423.8"/>
<text xml:space="preserve" text-anchor="start" x="417.84" y="-434.1" font-family="Helvetica,sans-Serif" font-size="11.00">Mermaid Syntax compiler</text>
</g>
<!-- CodeExtraction&#45;&gt;EngineMermaid -->
<g id="edge8" class="edge">
<title>CodeExtraction-&gt;EngineMermaid</title>
<path fill="none" stroke="#546e7a" stroke-width="1.5" d="M319.99,-583.2C395.85,-583.2 489.67,-583.2 489.67,-583.2 489.67,-583.2 489.67,-494.27 489.67,-494.27"/>
<polygon fill="#546e7a" stroke="#546e7a" stroke-width="1.5" points="493.17,-494.27 489.67,-484.27 486.17,-494.27 493.17,-494.27"/>
</g>
<!-- EngineChart -->
<g id="node10" class="node">
<title>EngineChart</title>
<polygon fill="#ffe0b2" stroke="none" points="413.89,-353 413.89,-380.2 565.45,-380.2 565.45,-353 413.89,-353"/>
<polygon fill="none" stroke="#ffcc80" points="413.89,-353 413.89,-380.2 565.45,-380.2 565.45,-353 413.89,-353"/>
<text xml:space="preserve" text-anchor="start" x="449.02" y="-364.3" font-family="Helvetica,sans-Serif" font-weight="bold" font-size="11.00">ChartJS / Plotly</text>
<polygon fill="#ffffff" stroke="none" points="413.89,-325.8 413.89,-353 565.45,-353 565.45,-325.8 413.89,-325.8"/>
<polygon fill="none" stroke="#ffcc80" points="413.89,-325.8 413.89,-353 565.45,-353 565.45,-325.8 413.89,-325.8"/>
<text xml:space="preserve" text-anchor="start" x="420.89" y="-336.1" font-family="Helvetica,sans-Serif" font-size="11.00">JSON Configurations parser</text>
</g>
<!-- CodeExtraction&#45;&gt;EngineChart -->
<g id="edge9" class="edge">
<title>CodeExtraction-&gt;EngineChart</title>
<path fill="none" stroke="#546e7a" stroke-width="1.5" d="M272.67,-555.24C272.67,-487.65 272.67,-353 272.67,-353 272.67,-353 393.82,-353 393.82,-353"/>
<polygon fill="#546e7a" stroke="#546e7a" stroke-width="1.5" points="393.82,-356.5 403.82,-353 393.82,-349.5 393.82,-356.5"/>
</g>
<!-- LLM&#45;&gt;CodeExtraction -->
<g id="edge4" class="edge">
<title>LLM-&gt;CodeExtraction</title>
<path fill="none" stroke="#546e7a" stroke-width="1.5" d="M784.67,-684.75C784.67,-646.46 784.67,-597.2 784.67,-597.2 784.67,-597.2 332.45,-597.2 332.45,-597.2"/>
<polygon fill="#546e7a" stroke="#546e7a" stroke-width="1.5" points="332.45,-593.7 322.45,-597.2 332.45,-600.7 332.45,-593.7"/>
<text xml:space="preserve" text-anchor="middle" x="489.67" y="-762" font-family="Helvetica,sans-Serif" font-size="10.00"> Strictly Formatted JSON</text>
</g>
<!-- OutLaTeX -->
<g id="node11" class="node">
<title>OutLaTeX</title>
<polygon fill="#e1bee7" stroke="none" points="826.75,-255 826.75,-282.2 1033.95,-282.2 1033.95,-255 826.75,-255"/>
<polygon fill="none" stroke="#ce93d8" points="826.75,-255 826.75,-282.2 1033.95,-282.2 1033.95,-255 826.75,-255"/>
<text xml:space="preserve" text-anchor="start" x="871.96" y="-266.3" font-family="Helvetica,sans-Serif" font-weight="bold" font-size="11.00">Electrical &amp; Chemistry</text>
<polygon fill="#ffffff" stroke="none" points="826.75,-227.8 826.75,-255 1033.95,-255 1033.95,-227.8 826.75,-227.8"/>
<polygon fill="none" stroke="#ce93d8" points="826.75,-227.8 826.75,-255 1033.95,-255 1033.95,-227.8 826.75,-227.8"/>
<text xml:space="preserve" text-anchor="start" x="833.75" y="-238.1" font-family="Helvetica,sans-Serif" font-size="11.00">Accurate schematics &amp; structural bonds</text>
</g>
<!-- EngineLaTeX&#45;&gt;OutLaTeX -->
<g id="edge10" class="edge">
<title>EngineLaTeX-&gt;OutLaTeX</title>
<path fill="none" stroke="#546e7a" stroke-width="1.5" d="M585.02,-255C585.02,-255 806.56,-255 806.56,-255"/>
<polygon fill="#546e7a" stroke="#546e7a" stroke-width="1.5" points="806.56,-258.5 816.56,-255 806.56,-251.5 806.56,-258.5"/>
</g>
<!-- OutDS -->
<g id="node12" class="node">
<title>OutDS</title>
<polygon fill="#e1bee7" stroke="none" points="830.72,-157 830.72,-184.2 1029.98,-184.2 1029.98,-157 830.72,-157"/>
<polygon fill="none" stroke="#ce93d8" points="830.72,-157 830.72,-184.2 1029.98,-184.2 1029.98,-157 830.72,-157"/>
<text xml:space="preserve" text-anchor="start" x="889.39" y="-168.3" font-family="Helvetica,sans-Serif" font-weight="bold" font-size="11.00">Data Structures</text>
<polygon fill="#ffffff" stroke="none" points="830.72,-129.8 830.72,-157 1029.98,-157 1029.98,-129.8 830.72,-129.8"/>
<polygon fill="none" stroke="#ce93d8" points="830.72,-129.8 830.72,-157 1029.98,-157 1029.98,-129.8 830.72,-129.8"/>
<text xml:space="preserve" text-anchor="start" x="837.72" y="-140.1" font-family="Helvetica,sans-Serif" font-size="11.00">Forward/backward stepping execution</text>
</g>
<!-- EngineCanvas&#45;&gt;OutDS -->
<g id="edge11" class="edge">
<title>EngineCanvas-&gt;OutDS</title>
<path fill="none" stroke="#546e7a" stroke-width="1.5" d="M577.79,-157C577.79,-157 810.64,-157 810.64,-157"/>
<polygon fill="#546e7a" stroke="#546e7a" stroke-width="1.5" points="810.64,-160.5 820.64,-157 810.64,-153.5 810.64,-160.5"/>
</g>
<!-- OutMath -->
<g id="node13" class="node">
<title>OutMath</title>
<polygon fill="#e1bee7" stroke="none" points="851.82,-59 851.82,-86.2 1008.88,-86.2 1008.88,-59 851.82,-59"/>
<polygon fill="none" stroke="#ce93d8" points="851.82,-59 851.82,-86.2 1008.88,-86.2 1008.88,-59 851.82,-59"/>
<text xml:space="preserve" text-anchor="start" x="889.7" y="-70.3" font-family="Helvetica,sans-Serif" font-weight="bold" font-size="11.00">Science &amp; Math</text>
<polygon fill="#ffffff" stroke="none" points="851.82,-31.8 851.82,-59 1008.88,-59 1008.88,-31.8 851.82,-31.8"/>
<polygon fill="none" stroke="#ce93d8" points="851.82,-31.8 851.82,-59 1008.88,-59 1008.88,-31.8 851.82,-31.8"/>
<text xml:space="preserve" text-anchor="start" x="858.82" y="-42.1" font-family="Helvetica,sans-Serif" font-size="11.00">Interactive variables &amp; sliders</text>
</g>
<!-- EngineJS&#45;&gt;OutMath -->
<g id="edge12" class="edge">
<title>EngineJS-&gt;OutMath</title>
<path fill="none" stroke="#546e7a" stroke-width="1.5" d="M575.42,-59C575.42,-59 831.8,-59 831.8,-59"/>
<polygon fill="#546e7a" stroke="#546e7a" stroke-width="1.5" points="831.8,-62.5 841.8,-59 831.8,-55.5 831.8,-62.5"/>
</g>
<!-- OutArch -->
<g id="node14" class="node">
<title>OutArch</title>
<polygon fill="#e1bee7" stroke="none" points="846.31,-451 846.31,-478.2 1014.38,-478.2 1014.38,-451 846.31,-451"/>
<polygon fill="none" stroke="#ce93d8" points="846.31,-451 846.31,-478.2 1014.38,-478.2 1014.38,-451 846.31,-451"/>
<text xml:space="preserve" text-anchor="start" x="883.9" y="-462.3" font-family="Helvetica,sans-Serif" font-weight="bold" font-size="11.00">Architecture Flow</text>
<polygon fill="#ffffff" stroke="none" points="846.31,-423.8 846.31,-451 1014.38,-451 1014.38,-423.8 846.31,-423.8"/>
<polygon fill="none" stroke="#ce93d8" points="846.31,-423.8 846.31,-451 1014.38,-451 1014.38,-423.8 846.31,-423.8"/>
<text xml:space="preserve" text-anchor="start" x="853.31" y="-434.1" font-family="Helvetica,sans-Serif" font-size="11.00">Cleanly laid out SVG flowcharts</text>
</g>
<!-- EngineMermaid&#45;&gt;OutArch -->
<g id="edge13" class="edge">
<title>EngineMermaid-&gt;OutArch</title>
<path fill="none" stroke="#546e7a" stroke-width="1.5" d="M576.47,-451C576.47,-451 826.15,-451 826.15,-451"/>
<polygon fill="#546e7a" stroke="#546e7a" stroke-width="1.5" points="826.15,-454.5 836.15,-451 826.15,-447.5 826.15,-454.5"/>
</g>
<!-- OutChart -->
<g id="node15" class="node">
<title>OutChart</title>
<polygon fill="#e1bee7" stroke="none" points="840.51,-353 840.51,-380.2 1020.19,-380.2 1020.19,-353 840.51,-353"/>
<polygon fill="none" stroke="#ce93d8" points="840.51,-353 840.51,-380.2 1020.19,-380.2 1020.19,-353 840.51,-353"/>
<text xml:space="preserve" text-anchor="start" x="884.8" y="-364.3" font-family="Helvetica,sans-Serif" font-weight="bold" font-size="11.00">Raw Data Visuals</text>
<polygon fill="#ffffff" stroke="none" points="840.51,-325.8 840.51,-353 1020.19,-353 1020.19,-325.8 840.51,-325.8"/>
<polygon fill="none" stroke="#ce93d8" points="840.51,-325.8 840.51,-353 1020.19,-353 1020.19,-325.8 840.51,-325.8"/>
<text xml:space="preserve" text-anchor="start" x="847.51" y="-336.1" font-family="Helvetica,sans-Serif" font-size="11.00">Dynamic tooltips, zoom &amp; legends</text>
</g>
<!-- EngineChart&#45;&gt;OutChart -->
<g id="edge14" class="edge">
<title>EngineChart-&gt;OutChart</title>
<path fill="none" stroke="#546e7a" stroke-width="1.5" d="M573.34,-353C573.34,-353 820.52,-353 820.52,-353"/>
<polygon fill="#546e7a" stroke="#546e7a" stroke-width="1.5" points="820.52,-356.5 830.52,-353 820.52,-349.5 820.52,-356.5"/>
</g>
</g>
</svg>